<svg width="24" height="24" viewBox="0 0 24 24" fill="none" xmlns="http://www.w3.org/2000/svg"><path d="M13.7111 1C10.4655 1.6934 7.78314 3.91961 6.24506 6.8164C5.90808 6.70621 5.5802 6.57189 5.2527 6.43772C5.01073 6.33858 4.76894 6.23953 4.52387 6.15037L4.40346 6.34485C3.736 7.42198 3.05864 8.51508 2.74777 9.75427C2.45482 11.9622 4.04323 13.8554 5.48058 15.3517C5.89242 15.3562 6.3047 15.3608 6.71654 15.379L6.71355 15.0892C6.69931 13.7518 6.68498 12.4055 6.94542 11.0909C7.57711 8.97419 9.20673 7.39572 10.8866 6.05457C11.0073 7.31265 11.1929 8.56275 11.3784 9.81231L11.4131 10.0463C12.0664 10.0763 12.6924 9.8996 13.3158 9.72362C14.112 9.49888 14.904 9.27531 15.7435 9.48506C17.7439 10.7989 17.8263 13.4402 17.8217 15.5889C19.9228 14.786 21.0534 12.6146 21.4562 10.5298C21.3556 7.61015 19.0897 5.38853 16.5308 4.27543L16.5258 4.64301C16.5104 5.78485 16.4951 6.92932 16.3752 8.06635C15.3361 7.2726 14.2787 6.35566 13.8437 5.07833C13.7203 4.16792 13.7217 3.24921 13.7231 2.33061C13.7238 1.88675 13.7245 1.44287 13.7111 1Z" fill="white"/><path d="M10.8647 11.294C10.196 10.9603 9.19995 10.4632 8.63475 11.2367C7.83818 12.7375 7.76036 14.4802 7.73293 16.1452C7.86421 16.2128 7.99514 16.2823 8.12632 16.3519C8.67658 16.6439 9.23161 16.9384 9.83403 17.1077C9.96594 17.1164 10.0985 17.1254 10.2317 17.1345L10.2333 17.1346C12.3453 17.2789 14.595 17.4326 16.4074 16.1498C16.3616 14.5714 16.3021 12.9565 15.7665 11.4511C15.2996 10.7531 14.2605 10.5387 13.6746 11.2138C13.1406 11.7811 13.31 12.4815 13.48 13.1841C13.5752 13.5775 13.6705 13.9715 13.6426 14.3433C13.2571 13.9536 12.9133 13.524 12.5695 13.0944C12.0599 12.4576 11.5503 11.8209 10.9052 11.3142L10.8647 11.294Z" fill="white"/><path d="M0.619288 15.4935C1.92389 15.1194 3.66336 15.0054 4.51021 16.2872C4.90572 16.755 5.29745 17.2704 5.69792 17.7973C7.45736 20.1123 9.38554 22.6493 12.5439 22.3409C15.1899 22.1077 16.791 19.9979 18.3251 17.9764C18.8319 17.3086 19.3314 16.6505 19.8588 16.0728C20.5567 15.1302 21.7098 15.2423 22.7918 15.3474C23.1078 15.3782 23.4177 15.4083 23.7085 15.4114C24.8758 18.1987 22.2986 20.5161 20.2066 21.9349C15.8442 24.453 10.3558 24.5716 5.69123 22.8153C3.37498 21.8071 1.20063 20.101 0.179837 17.7425C-0.222981 16.9898 0.1066 16.0911 0.619288 15.4935Z" fill="white"/><path d="M16.2197 18.0299C13.496 18.7917 10.6259 18.8191 7.92054 17.9797C8.82236 19.7542 10.7678 21.3555 12.8826 20.8765C14.3566 20.5024 15.4598 19.2889 16.2197 18.0299Z" fill="white"/></svg>