<svg width="24" height="24" viewBox="0 0 24 24" fill="none" xmlns="http://www.w3.org/2000/svg"><path d="M11.8514 0C13.4347 1.11089 14.9033 2.3875 16.0367 3.98215C17.1481 3.28337 18.2904 2.57563 19.5826 2.28447C20.3801 2.74164 20.0117 3.4044 19.6241 4.10173C19.2294 4.81191 18.8148 5.55793 19.5914 6.15913C21.9509 8.28682 23.3003 11.4358 22.9431 14.6609C20.3825 14.5321 18.6632 12.6227 17.0429 10.8234C16.8047 10.5588 16.5685 10.2966 16.3322 10.0427C14.8107 12.9275 12.6409 15.391 10.1402 17.4382C9.66396 17.8905 8.37184 18.0249 8.35417 17.0754C8.06468 16.1381 7.79373 15.1946 7.52303 14.252C7.39783 13.816 7.27268 13.3802 7.14578 12.9453C5.49634 15.391 5.00681 18.3967 5.06414 21.3083C2.44006 19.9152 1.91966 16.5289 2.01228 13.8009C1.8491 10.7728 3.32652 7.84333 5.61542 5.95304C6.97613 4.55238 8.82791 4.02846 10.6406 3.51558C11.0076 3.41175 11.373 3.30837 11.7324 3.19826C11.7421 2.4169 11.7778 1.63555 11.8136 0.854187C11.8266 0.569458 11.8397 0.284729 11.8514 0Z" fill="white"/><path d="M14.9871 14.3919C17.32 14.804 19.7324 15.2564 21.8317 16.4211C20.8129 17.5274 19.5075 18.5621 17.9154 18.2128C15.9529 18.1815 15.1237 16.0851 14.9871 14.3919Z" fill="white"/><path d="M13.6809 18.9804C12.2121 18.9098 10.6596 18.8351 9.34211 19.6147C8.09642 20.1478 7.34482 21.3206 6.62988 22.4362C6.53991 22.5766 6.45052 22.7161 6.3608 22.8533C6.49993 22.9576 6.63724 23.0852 6.77716 23.2152C7.21374 23.6208 7.67561 24.0499 8.29687 23.8701C8.50146 23.673 8.70367 23.4637 8.90772 23.2526C9.81204 22.3168 10.7527 21.3434 12.0984 21.2227C14.0654 20.9764 15.5472 22.5755 16.6586 24C17.426 23.8387 18.0743 23.3953 18.6343 22.8533C17.5804 21.0301 16.0191 19.2474 13.8317 18.9876C13.7815 18.9852 13.7313 18.9828 13.6809 18.9804Z" fill="white"/></svg>