<svg width="24" height="24" viewBox="0 0 24 24" fill="none" xmlns="http://www.w3.org/2000/svg"><path d="M13.5327 1C16.3657 2.65107 19.1195 4.45652 22 6.01325C21.5805 9.28962 19.8831 12.1886 18.989 15.3322C19.6418 15.8768 20.4727 15.8554 21.2522 15.9497C20.7457 16.683 20.263 17.4335 19.7367 18.1497C20.1641 19.1146 20.623 20.0709 21.2205 20.92C20.3579 20.2853 19.2857 20.444 18.3044 20.3282C17.9642 21.1774 17.8494 22.0993 17.6674 23C17.5764 22.9914 17.3944 22.9785 17.3073 22.9743C16.8445 22.2409 16.5675 21.276 15.8434 20.8085C15.0164 20.9843 14.2211 21.2846 13.414 21.5333C13.6593 20.6498 13.9442 19.7836 14.1895 18.9002C13.406 18.3813 12.6345 17.8366 11.8748 17.2748C12.7295 17.0476 13.5683 16.7602 14.423 16.5244C14.3557 15.4994 14.332 14.4744 14.2765 13.4537C14.9373 13.8869 15.5981 14.3244 16.2668 14.7532C16.8286 13.561 17.1531 12.2615 17.5922 11.0137C16.793 10.5419 16.0649 9.8686 15.1668 9.64564C14.7118 10.186 14.324 10.7863 13.8967 11.3525C12.6385 10.5547 11.3209 9.87721 10.0191 9.17819C9.90839 13.0292 10.7432 16.8502 10.3594 20.7056C9.85297 21.5762 8.85988 21.3103 8.0725 21.5376C7.41962 21.7391 6.79842 22.0265 6.16535 22.2924C5.33444 21.2717 4.57476 20.1395 3.22949 19.938C3.4115 18.4671 3.34819 17.0132 3 15.5852C4.00104 14.8175 5.10892 14.1957 5.80925 13.0593C6.43045 13.0935 7.05162 13.1279 7.67282 13.1622C7.40383 11.391 7.34046 9.60269 7.20994 7.81438C6.82611 6.01753 6.57288 4.19064 6.48188 2.34659C7.56206 2.32943 8.42065 3.07563 9.29902 3.64599C10.4702 4.46938 11.677 5.22845 12.8403 6.06471C12.6226 4.32787 12.8086 2.57816 13.5327 1ZM6.07039 18.8358C6.71533 18.8316 7.35635 18.8358 8.00129 18.8401C8.51561 17.9996 8.53935 17.0347 7.98937 16.207C7.37214 16.207 6.75489 16.2156 6.13765 16.237C6.01895 17.099 5.98334 17.9696 6.07039 18.8358Z" fill="white"/></svg>