<svg width="24" height="24" viewBox="0 0 24 24" fill="none" xmlns="http://www.w3.org/2000/svg"><path d="M6.29097 1.03227C8.17894 1.05376 10.5519 3.0878 9.728 5.15192C9.20444 6.19257 8.37636 7.08273 8.03734 8.20943C8.32054 9.27153 9.1272 10.5143 10.3802 10.4326C11.9035 10.4155 13.4869 10.6606 14.9672 10.2091C15.5121 9.64142 16.0442 8.98348 16.233 8.2051C15.761 6.74731 14.5381 5.70235 13.9202 4.31767C14.2077 3.2082 15.1645 2.45135 15.9884 1.72891C16.5506 1.38918 17.2028 0.731244 17.9065 1.11827C18.0738 2.24924 17.2843 3.37161 17.619 4.45957C19.4898 6.60106 21.8069 8.84157 22 11.8431C20.5926 12.1442 18.8891 12.2903 18.031 13.632C17.5117 14.9264 18.8891 15.9585 18.7947 17.2099C18.297 18.6204 17.1984 19.6997 16.5377 21.0328C15.9498 21.0844 15.1861 20.7016 14.7054 21.1876C13.7958 22.0735 13.0534 23.1098 12.1481 24C10.6935 22.8561 9.73223 20.5512 7.5525 20.9124C6.99032 19.7427 6.16646 18.7278 5.51427 17.6098C4.96932 16.2122 6.73286 15.0511 6.18366 13.6492C5.29114 12.2861 3.49754 11.985 2 11.8388C2.60073 8.83724 4.78482 6.57526 6.61279 4.26177C7.02039 3.24261 6.20086 2.11593 6.29097 1.03227ZM7.50523 13.6965C7.8357 15.5671 9.45767 16.6809 11.277 16.7627C10.2815 15.4295 9.4619 13.946 8.20036 12.8321C8.02447 13.0472 7.6769 13.4815 7.50523 13.6965ZM13.0191 16.7712C13.9674 16.5605 14.9758 16.3326 15.6967 15.6403C16.4647 14.9135 16.3746 13.7052 16.1 12.7763C14.8128 13.8858 13.8515 15.2962 13.0191 16.7712Z" fill="white"/></svg>