<svg width="24" height="24" viewBox="0 0 24 24" fill="none" xmlns="http://www.w3.org/2000/svg"><path d="M16.5356 1.04637C19.3429 0.734747 22.0007 2.02777 24 3.9022C23.9626 5.95337 22.7575 7.7441 22.0708 9.62316C21.0105 9.47894 19.9548 9.30222 18.8991 9.13012C18.8525 13.7534 18.8338 18.3767 18.8571 23C14.1954 22.9674 9.53368 23.0511 4.87193 22.9302C4.88595 18.3673 4.93733 13.8046 4.83923 9.24646C3.86298 9.37203 2.8914 9.49298 1.91514 9.6046C1.25185 7.72545 0.00934682 5.94407 0 3.9022C1.97587 2.06963 4.60101 0.813816 7.35229 1.03242C8.2071 2.98591 9.44958 5.55337 12.0094 5.33476C14.5083 5.51616 15.7648 2.99987 16.5356 1.04637ZM12.0608 7.32087C11.6637 10.1488 11.8412 13.0092 11.7851 15.8558C10.4352 16.3255 8.80034 16.5162 7.8708 17.7115C7.27756 18.7535 7.25419 20.4883 8.54804 21.0185C10.4071 21.4883 12.8828 20.8092 13.5134 18.8279C13.8544 17.0372 13.6815 15.1952 13.7936 13.3814C14.6625 14.2511 15.5406 15.1208 16.4282 15.9767C16.3628 14.4837 16.8672 12.7348 15.8583 11.4511C14.7045 9.97668 13.3686 8.65575 12.0608 7.32087Z" fill="white"/></svg>