<svg width="24" height="24" viewBox="0 0 24 24" fill="none" xmlns="http://www.w3.org/2000/svg"><path d="M4.14451 2.30554C5.70412 2.05127 7.33963 1.85013 8.89543 2.14994C9.43538 2.4922 9.87342 2.95641 10.3117 3.42085C10.7481 3.88336 11.1847 4.3461 11.7225 4.68884C12.5954 4.68311 13.1674 4.033 13.7454 3.37616C14.3155 2.72821 14.8913 2.0737 15.7676 2.0247C15.8929 2.02326 16.0184 2.02132 16.1441 2.01939C17.3355 2.00105 18.5407 1.98249 19.6837 2.37385C17.775 4.3359 15.8473 6.27898 13.8816 8.18414C13.2366 7.87674 12.6142 7.52374 12.0033 7.15562C11.3961 7.54269 10.77 7.89945 10.106 8.18789C9.33939 7.44016 8.58564 6.67959 7.83211 5.91924C6.61989 4.69606 5.40813 3.47333 4.14451 2.30554Z" fill="white"/><path d="M2.25092 4.37405C4.43666 6.1843 6.41748 8.25638 8.30345 10.374C7.88978 10.913 7.48756 11.467 7.08913 12.0173L7.23823 12.2122C7.59782 12.6822 7.95656 13.1511 8.33 13.6113C6.79382 15.3859 5.10483 17.018 3.41709 18.649C3.06199 18.9921 2.70694 19.3352 2.35338 19.6796C1.92034 18.4388 1.98222 17.1201 2.04285 15.8279C2.04917 15.6934 2.05547 15.5592 2.06119 15.4253C2.32931 14.6788 2.90538 14.1481 3.48375 13.6153C3.9286 13.2055 4.37481 12.7945 4.68331 12.283C4.69092 11.3941 4.03331 10.8337 3.37005 10.2684C2.71079 9.70651 2.04594 9.13987 2.02324 8.24126L2.02231 8.20177C1.99222 6.9242 1.96172 5.62868 2.25092 4.37405Z" fill="white"/><path d="M21.6455 4.45744C19.5889 6.30563 17.5359 8.20693 15.8321 10.3967C16.1964 10.9319 16.5607 11.4669 16.9288 12.0058C16.5569 12.5447 16.185 13.0837 15.8207 13.6263C17.0376 15.2216 18.4921 16.6071 19.9439 17.99C20.5021 18.5217 21.0601 19.0532 21.6038 19.596C22.0824 18.4662 22.0163 17.2331 21.952 16.0308C21.9413 15.8317 21.9307 15.6334 21.9226 15.4366C21.6719 14.6692 21.0881 14.1322 20.5014 13.5926C20.0668 13.1929 19.6306 12.7917 19.327 12.2943C19.3232 11.4157 19.9721 10.8521 20.6282 10.2823C21.2842 9.71263 21.9473 9.13675 21.9719 8.23358C22.0364 6.96598 22.0137 5.68325 21.6455 4.45744Z" fill="white"/><path d="M10.8421 10.3016C11.6124 10.1764 12.4017 10.1764 13.1758 10.2902C14.1093 11.053 14.1017 12.9582 13.1834 13.7361C12.9771 13.7394 12.7538 13.7614 12.5242 13.784C11.6853 13.8666 10.7643 13.9574 10.2995 13.1707C10.2911 12.9793 10.2672 12.7722 10.2426 12.5588C10.1448 11.7105 10.0355 10.7625 10.8421 10.3016Z" fill="white"/><path d="M8.1288 17.8054C6.76831 19.0957 5.40661 20.3871 4.36463 21.9454C4.50801 21.9488 4.65143 21.9525 4.79488 21.9561C6.05615 21.9882 7.31988 22.0203 8.58049 21.9454C9.35478 21.6806 9.89954 21.0875 10.4466 20.4919C10.8406 20.063 11.2358 19.6328 11.7187 19.323C12.5917 19.3173 13.1547 19.9684 13.7237 20.6265C14.295 21.2872 14.8722 21.9548 15.7752 21.9719C17.0654 22.0174 18.3518 22.0061 19.6382 21.9491C18.5898 20.355 17.2015 19.0423 15.8145 17.7309C15.1081 17.063 14.402 16.3954 13.7413 15.691C13.3595 15.9718 12.9743 16.2457 12.5891 16.5197C12.3962 16.6569 12.2034 16.794 12.0109 16.9321C11.754 16.7474 11.4964 16.5642 11.239 16.3811C10.9147 16.1504 10.5908 15.92 10.2691 15.6873C9.58915 16.4204 8.85915 17.1127 8.1288 17.8054Z" fill="white"/></svg>