<svg width="24" height="24" viewBox="0 0 24 24" fill="none" xmlns="http://www.w3.org/2000/svg"><path d="M14.1475 1.01817C12.719 1.00453 11.2905 1 9.86645 1C10.1615 3.5619 10.6407 6.09201 11.1706 8.61306C11.5393 8.71297 12.2766 8.90827 12.6453 9.00367C13.3503 6.38272 13.8388 3.7118 14.1475 1.01817Z" fill="white"/><path d="M8.26743 3.9527C7.70979 4.98836 7.16139 6.02857 6.61766 7.06876C6.84074 7.3434 7.05694 7.6338 7.27492 7.92659C8.14215 9.09147 9.03762 10.2943 10.507 10.6936C10.5949 8.47517 9.56244 6.47013 8.56811 4.53913C8.46708 4.34294 8.36645 4.14751 8.26743 3.9527Z" fill="white"/><path d="M13.5393 10.9528C13.613 8.54538 14.0692 5.81537 16.0553 4.19374C16.1169 4.33094 16.1811 4.46892 16.2457 4.60783C16.6452 5.46688 17.061 6.36091 16.9816 7.31892C16.3813 8.76918 15.0905 9.76064 13.8673 10.7002C13.7574 10.7846 13.6475 10.8689 13.5393 10.9528Z" fill="white"/><path d="M3.56225 6.53333C2.82953 7.45545 2.12908 8.40934 1.43323 9.36323C1.60542 9.44889 1.77766 9.53568 1.95023 9.62264C3.2417 10.2734 4.55127 10.9333 5.98618 11.1938C6.2665 11.0884 6.54979 10.9917 6.83308 10.895C7.25755 10.7501 7.68226 10.6051 8.0968 10.4307C6.73271 8.97713 5.17513 7.71892 3.56225 6.53333Z" fill="white"/><path d="M15.8893 10.4527C17.2579 8.98545 18.8247 7.72274 20.4422 6.53715C21.1795 7.46838 21.8846 8.42227 22.5805 9.38526C22.4638 9.44277 22.3471 9.50059 22.2302 9.55847C20.8793 10.2276 19.5116 10.905 18.0229 11.1976C17.6244 11.0348 17.2169 10.9014 16.8099 10.7681C16.5014 10.6672 16.1932 10.5662 15.8893 10.4527Z" fill="white"/><path d="M9.12916 13.3785C7.41947 12.3927 5.46099 12.0657 3.50709 12.0657C3.33953 12.4055 3.16916 12.7431 2.99893 13.0805C2.68224 13.708 2.36603 14.3346 2.06931 14.9728C4.48403 14.7639 6.94947 14.5049 9.12916 13.3785Z" fill="white"/><path d="M14.8939 13.3781C16.2765 12.6603 17.7741 11.9881 19.3825 12.1335C20.3754 12.0985 20.8811 12.9016 21.3731 13.6828C21.5844 14.0183 21.7931 14.3498 22.0368 14.609C19.599 14.7272 17.0507 14.6681 14.8939 13.3781Z" fill="white"/><path d="M5.73988 15.5436C3.80057 16.2115 1.86134 16.8794 0 17.7474C0.705069 18.8875 1.42857 20.0141 2.18432 21.1224C4.38246 19.6688 6.44698 18.0245 8.34556 16.2075C8.22806 16.0508 8.05295 15.818 7.87785 15.5852L7.87554 15.5821C7.70139 15.3506 7.52699 15.1188 7.41013 14.9629C6.85462 15.1596 6.29722 15.3516 5.73988 15.5436Z" fill="white"/><path d="M16.4931 15.0366C19.0461 15.7952 21.5714 16.64 24 17.7257C23.2996 18.8794 22.5852 20.0195 21.8296 21.137C20.3211 20.1021 18.8798 18.9799 17.4399 17.8587C16.8827 17.4249 16.3257 16.9912 15.7651 16.5628C15.8549 16.372 15.992 16.0858 16.1291 15.7997C16.2661 15.5137 16.4034 15.2272 16.4931 15.0366Z" fill="white"/><path d="M10.567 15.7769C8.39186 17.0806 6.82963 19.1202 5.50708 21.2232C6.68218 21.2823 7.8527 21.3277 9.0278 21.3732C9.77891 19.5789 10.4564 17.7347 10.567 15.7769Z" fill="white"/><path d="M13.0553 16.0218C15.4405 16.629 16.8029 18.6892 18.0766 20.6152C18.213 20.8214 18.3484 21.0261 18.4839 21.2274C17.3272 21.2819 16.1705 21.3182 15.0138 21.3546C14.2673 19.6103 13.5852 17.8433 13.0553 16.0218Z" fill="white"/><path d="M11.9999 17.8755C10.8248 19.7152 10.304 21.841 10.1428 23.985C11.3824 24.0031 12.6174 24.0031 13.8524 23.9941C13.7234 21.841 13.175 19.7152 11.9999 17.8755Z" fill="white"/></svg>