<svg width="24" height="24" viewBox="0 0 24 24" fill="none" xmlns="http://www.w3.org/2000/svg"><g clip-path="url(#clip0_4181_220)"><path d="M10.9828 1.09936C9.65849 2.46419 8.25625 3.90937 8.56028 5.94363C8.63187 7.23961 8.83386 8.5206 9.03581 9.80126C9.29549 11.4481 9.55508 13.0944 9.53721 14.7713C9.71304 14.813 9.97833 14.8769 10.2432 14.9407C10.5054 15.0038 10.7672 15.0668 10.9412 15.1081C11.5248 13.0247 11.1792 10.951 10.8333 8.87569C10.646 7.75174 10.4586 6.62731 10.4187 5.50058C10.3687 4.58228 10.9185 3.17945 12.0045 3.34096C12.8814 3.30404 13.6629 4.22235 13.5811 5.09912C13.5651 6.01143 13.4513 6.9166 13.3375 7.82209C13.1928 8.97304 13.0481 10.1245 13.104 11.2919C15.5758 9.83368 15.6803 6.70036 15.335 4.14851C14.7262 2.76494 13.6584 1.68239 12.6094 0.618933C12.4059 0.41259 12.2031 0.206965 12.0045 0C11.6931 0.367283 11.3408 0.730386 10.9828 1.09936Z" fill="white"/><path d="M0.98778 6.71756C0.657131 6.69496 0.32738 6.67243 0 6.64493C0.0139499 6.98988 0.0191203 7.34561 0.0243694 7.70676C0.053317 9.69835 0.0846625 11.8549 1.60393 13.2807L1.65993 13.3347C3.19918 14.8206 4.90283 16.4651 7.16086 16.5017C6.70457 15.0716 5.64375 14.1294 4.58036 13.185C3.79071 12.4836 2.99963 11.781 2.45361 10.8764C2.03569 10.2513 2.44472 9.70591 2.8391 9.18009C2.99784 8.96844 3.1542 8.75997 3.2533 8.55073C4.25071 9.26004 5.14393 10.0921 6.03742 10.9245C6.75986 11.5975 7.48248 12.2706 8.26052 12.8792C8.32405 10.7473 7.41538 8.42148 5.40703 7.49864C4.00711 6.92388 2.48816 6.82009 0.98778 6.71756Z" fill="white"/><path d="M19.0337 7.26331C20.5077 6.85015 22.046 6.77211 23.5692 6.69484C23.713 6.68754 23.8566 6.68026 24 6.6727C23.983 7.01401 23.971 7.35759 23.9589 7.70209C23.9062 9.20196 23.853 10.7196 23.3911 12.1455C22.6017 13.2888 21.4999 14.1225 20.3993 14.9553C19.7897 15.4166 19.1803 15.8777 18.6247 16.391C18.2564 16.6697 17.8999 16.9826 17.5413 17.2974C16.5638 18.1554 15.5707 19.0271 14.2809 19.2567C13.4252 18.6594 12.6923 17.9096 11.9615 17.1621C11.7495 16.9451 11.5376 16.7284 11.323 16.5156C12.443 14.8495 13.6659 13.2612 14.8884 11.6736C15.4265 10.9747 15.9646 10.2759 16.4938 9.57067C16.5953 9.44677 16.6963 9.31967 16.7981 9.19166C17.4201 8.40911 18.0692 7.59249 19.0337 7.26331Z" fill="white"/><path d="M8.90565 15.5738C8.47849 15.8461 8.05143 16.1229 7.62428 16.3998C7.61974 16.5036 7.61407 16.6581 7.6084 16.8126C7.60273 16.9672 7.59705 17.1219 7.59251 17.2258C7.73131 17.3603 7.87192 17.4936 8.01264 17.6269C8.57675 18.1614 9.14267 18.6976 9.60084 19.3255C9.00662 20.2506 8.28426 21.0794 7.56463 21.9052C7.36529 22.1339 7.16616 22.3624 6.97002 22.5926C7.27474 22.9052 7.58146 23.2156 7.88885 23.5268C8.04441 23.6842 8.20014 23.8418 8.35587 24C9.12204 23.3473 9.8816 22.6856 10.6407 22.0243C10.971 21.7365 11.3012 21.4489 11.6319 21.162C12.3089 21.9743 12.9586 22.8141 13.5994 23.6586C14.0887 23.2347 14.5686 22.8044 15.0496 22.3731C15.1447 22.2879 15.2398 22.2026 15.335 22.1173C13.2904 19.8377 11.1457 17.655 8.90565 15.5738Z" fill="white"/></g><defs><clipPath id="clip0_4181_220"><rect width="24" height="24" fill="white"/></clipPath></defs></svg>