<svg width="24" height="24" viewBox="0 0 24 24" fill="none" xmlns="http://www.w3.org/2000/svg"><path d="M8.30241 2.89819C13.2485 0.294318 19.8979 3.67478 21.4301 8.89014C22.7341 12.2135 21.7228 16.2868 19.187 18.7384C18.6205 15.7576 20.0082 12.8188 19.3277 9.84947C18.9513 8.90155 18.727 7.58442 17.5371 7.38266C17.4268 11.6805 17.5371 15.9861 17.4685 20.2878C14.8111 18.1978 12.7506 15.4493 10.1083 13.3403C9.86495 13.5573 9.37836 13.9913 9.13502 14.2082C8.99817 15.8033 9.13122 17.406 9.07039 19.0049C10.5417 19.7358 12.2031 19.4274 13.7771 19.4655C14.5222 19.8956 15.1304 20.5162 15.7578 21.0986C10.7812 23.7063 4.17745 20.3334 2.5997 15.1181C1.20824 11.8519 2.402 8.08694 4.50061 5.41831C5.70578 7.59962 4.39035 10.0854 4.28391 12.3658C4.66028 13.8733 4.81996 16.0089 6.49656 16.6065C6.58399 12.3011 6.45474 7.99172 6.5726 3.68621C8.88029 5.58581 10.8458 7.85849 13.0015 9.92559C13.4083 10.5232 14.1838 10.4699 14.7807 10.2226C15.1115 8.47903 14.8643 6.68979 14.9327 4.92723C13.4386 4.31813 11.8191 4.55416 10.2565 4.53513C9.46957 4.20393 8.94493 3.44637 8.30241 2.89819Z" fill="white"/></svg>