<svg width="24" height="24" viewBox="0 0 24 24" fill="none" xmlns="http://www.w3.org/2000/svg"><path d="M7.4663 6.92177C9.7656 5.00993 11.7236 2.69613 14.2008 1C17.3654 4.18147 20.614 7.28943 23.7389 10.5052C24.4609 11.1082 23.4966 11.9219 23.116 12.4122C20.8217 14.873 18.834 17.5986 16.5446 20.0692C15.6199 21.0252 14.9376 22.329 13.7163 22.932C10.2304 23.0448 6.73952 22.9909 3.2486 22.9566C2.5613 21.7507 3.03103 20.1819 2.94203 18.8339C2.91236 15.7014 5.94345 13.1083 9.07336 13.5249C9.07827 13.27 9.08818 12.7602 9.09308 12.5053C6.98672 12.6572 4.92481 13.5249 2.7937 13.1278C1.46854 12.7406 0.400508 11.6621 0 10.3483C0.870251 8.69138 2.48713 10.1278 3.18431 11.1229C4.03479 11.1277 4.88525 11.0983 5.73569 11.0346C5.10282 9.65708 3.91611 8.53455 3.70349 6.98549C3.60955 4.7207 5.03853 2.18141 7.50585 1.96571C8.13381 3.3236 6.8136 4.27461 6.21037 5.33346C5.88898 6.0982 6.06209 6.96098 6.01263 7.76488C6.87298 8.662 7.8767 9.39246 9.192 9.31394C8.66786 8.48065 8.09927 7.67664 7.4663 6.92177ZM11.8621 8.85803C12.2923 10.1081 13.9191 9.91208 14.9574 9.74046C16.6188 9.09825 16.0007 7.05905 15.7386 5.74034C15.0562 5.59818 14.369 5.48053 13.6768 5.3923C12.0549 5.43641 10.893 7.50998 11.8621 8.85803ZM19.7783 11.0591C17.2764 13.8092 15.0513 16.7996 12.5148 19.525C9.99298 19.5692 7.4663 19.525 4.94459 19.5888C4.94459 20.0251 4.94459 20.8977 4.94459 21.334C7.52567 21.3683 10.1117 21.4565 12.6879 21.3143C15.1404 20.0643 16.3765 17.3633 18.2802 15.4759C19.3581 13.8239 21.5486 12.6866 21.5188 10.515C20.9452 10.667 20.1789 10.5198 19.7783 11.0591ZM5.28574 17.4956C7.11037 17.5691 8.92988 17.5593 10.7545 17.5201C10.3985 16.6231 9.94853 15.2896 8.70251 15.5103C7.16473 15.2504 6.00272 16.2651 5.28574 17.4956Z" fill="white"/></svg>