<svg width="24" height="24" viewBox="0 0 24 24" fill="none" xmlns="http://www.w3.org/2000/svg"><path d="M15.9778 1.71088C14.5926 0.813812 12.8229 0.909113 11.271 1.22075C10.0797 1.62616 9.23633 2.70477 8.69895 3.7985C8.36198 4.74571 8.64987 5.67188 8.93762 6.5976C9.09977 7.11927 9.26188 7.6408 9.31211 8.16589C8.53854 8.16791 7.82625 7.90458 7.11414 7.64132C6.78795 7.52073 6.4618 7.40016 6.12982 7.30511C5.92731 7.238 5.72583 7.16471 5.52413 7.09133C4.83919 6.84218 4.15181 6.59213 3.41384 6.58051C3.64851 7.54867 4.3222 8.40945 5.24418 8.80729C5.81182 9.05149 6.28958 9.43995 6.76471 9.82628C6.85474 9.89949 6.94468 9.97262 7.03512 10.0447C7.59205 10.4846 8.25851 10.743 8.91364 10.997C8.92989 11.0033 8.94614 11.0096 8.96238 11.0159C9.54296 11.2477 9.94679 11.7185 10.3448 12.1826C10.4584 12.315 10.5716 12.4469 10.6882 12.5725C10.795 11.5642 10.7823 10.5518 10.7696 9.53903C10.7593 8.71324 10.7489 7.88722 10.8033 7.06302C10.8011 6.69378 11.0342 6.42556 11.2642 6.16086C11.3527 6.05901 11.4408 5.95769 11.5148 5.85133C11.6264 5.70994 11.7215 5.55344 11.8166 5.3969C12.0054 5.08615 12.1944 4.77526 12.5125 4.58212C13.1393 4.20089 13.8039 3.8696 14.5169 3.68353C15.1285 3.48082 15.7841 3.77883 16.264 4.14946C16.5849 4.38091 16.5955 4.83626 16.4668 5.17511C16.2003 5.62476 15.7779 5.91297 15.3553 6.20126C14.9619 6.46969 14.5683 6.73819 14.3004 7.13716C14.1698 7.30818 14.3029 7.46326 14.4219 7.6018C14.4545 7.63978 14.4861 7.67652 14.5108 7.712C15.619 8.98271 17.1966 10.0477 18.9496 9.96758C19.5567 9.96601 20.2502 9.89197 20.6649 9.39117C21.1857 8.87081 21.1221 8.06756 21.0313 7.39891C20.724 6.11453 20.2032 4.83929 19.2282 3.91347C18.6289 3.21382 17.8352 2.77422 17.0421 2.33496C16.6811 2.13503 16.3202 1.93517 15.9778 1.71088Z" fill="white"/><path d="M16.4502 12.1515C15.9188 11.7824 15.395 11.4013 14.8743 11.0154C14.8726 11.6671 14.9204 12.3187 14.9682 12.9702C15.0488 14.0686 15.1294 15.1665 14.9727 16.2633C14.8485 17.0575 14.4155 17.7609 13.9159 18.3736C13.5602 18.7865 13.1605 19.2087 12.62 19.3644C12.1891 19.5318 11.7353 19.5786 11.2811 19.6255C10.9101 19.6638 10.5389 19.7021 10.1796 19.8061C10.1184 19.814 10.0536 19.8299 9.9877 19.8461C9.78602 19.8957 9.57326 19.948 9.41813 19.7805C9.09713 19.5535 9.02904 19.1224 9.11681 18.7623C9.23268 18.4867 9.45921 18.2759 9.68419 18.0666C9.99135 17.7809 10.2956 17.4978 10.3113 17.0559C10.3129 17.0152 10.3145 16.9745 10.3162 16.9338C10.3438 16.2367 10.3718 15.5316 10.2674 14.8413C10.0505 14.6297 9.7898 14.4782 9.52959 14.3269C9.40644 14.2553 9.28342 14.1838 9.16523 14.106C8.89064 13.941 8.63392 13.7493 8.37733 13.5576C8.02702 13.2959 7.67695 13.0344 7.28196 12.8414C6.29083 12.3286 5.14566 12.3677 4.05496 12.405C3.97111 12.4078 3.88759 12.4107 3.80448 12.4133C3.18984 12.4209 2.70992 12.8867 2.42077 13.389C1.93933 14.1666 1.98173 15.1227 2.02412 16.0015C2.05591 16.7005 2.40411 17.3374 2.84315 17.8668C3.66067 18.8547 4.53874 19.8001 5.51975 20.6291C7.27586 22.0996 9.52864 22.9815 11.8297 22.9815C13.7312 23.1372 15.7462 22.3053 16.7893 20.6714C17.2583 19.8732 17.349 18.9763 17.44 18.0761C17.5123 17.3607 17.5848 16.6431 17.8476 15.9713C18.4888 16.1505 19.0844 16.4626 19.6791 16.7743C20.5503 17.2309 21.4195 17.6865 22.4272 17.7215C22.733 17.7488 23.1599 17.4568 22.9389 17.1286C22.6497 16.6289 22.2234 16.2367 21.7989 15.8461C21.6168 15.6786 21.435 15.5113 21.2645 15.3359C20.7165 14.7796 20.0166 14.4421 19.3226 14.1075C19.1825 14.0399 19.0427 13.9725 18.9043 13.9034C18.3308 13.6235 17.8365 13.2269 17.3416 12.8299C17.0501 12.5959 16.7584 12.3619 16.4502 12.1515Z" fill="white"/></svg>