<svg width="24" height="24" viewBox="0 0 24 24" fill="none" xmlns="http://www.w3.org/2000/svg"><path d="M1 2.97386C1.64511 2.07443 2.6489 1.49367 3.64425 0.91779C4.1513 0.624422 4.65617 0.33232 5.11032 0C5.50176 0.27455 5.89599 0.569971 6.29543 0.869301C8.3777 2.42967 10.6017 4.09626 13.3114 3.4662C14.9136 2.89374 16.2969 1.87906 17.6706 0.871392C18.063 0.583494 18.4547 0.296162 18.8505 0.0198872C20.2843 0.830495 21.6593 1.74554 23 2.70533C22.7892 3.40686 22.4832 4.08198 22.1776 4.75635C21.6037 6.02282 21.031 7.28663 21.0917 8.71775C20.8617 10.8163 21.625 12.8055 22.4226 14.6904C20.6884 13.6616 19.0429 12.492 17.3977 11.3225C15.7424 10.1459 14.0874 8.96953 12.3426 7.93699C11.4832 7.83609 10.782 8.3584 10.0947 8.8703C9.79968 9.09004 9.50724 9.30786 9.20598 9.47364C6.70548 11.2788 4.20018 13.084 1.55783 14.6853L1.63465 14.4849C2.34092 12.6431 3.06753 10.7483 2.86922 8.73761C2.93149 7.24335 2.3187 5.92557 1.7087 4.6138C1.45591 4.07016 1.20359 3.52756 1 2.97386Z" fill="white"/><path d="M1.91512 17.192C5.15445 14.6955 8.57479 12.4428 11.9952 10.2049C12.7499 10.7147 13.5096 11.219 14.2697 11.7236C16.8903 13.4634 19.5162 15.2067 21.9627 17.192C21.6441 17.419 21.3284 17.6834 21.0081 17.9517C19.946 18.841 18.8334 19.7727 17.3973 19.5243C16.4937 19.1436 15.6997 18.553 14.9067 17.9632C13.9906 17.2819 13.0758 16.6016 11.9952 16.2471C10.9083 16.6001 9.98697 17.2826 9.06378 17.9664C8.27049 18.5541 7.47582 19.1427 6.57353 19.5243C5.1938 19.7423 4.11695 18.8829 3.07216 18.0491C2.68665 17.7415 2.30551 17.4373 1.91512 17.192Z" fill="white"/><path d="M9.19747 20.3094C8.82079 20.6137 8.44836 20.9145 8.06572 21.1555C9.14717 22.3639 10.439 23.4927 11.9901 24C13.5462 23.4977 14.8282 22.3689 15.9096 21.1555C15.5367 20.907 15.1783 20.6244 14.8191 20.3411C14.0564 19.7397 13.2899 19.1353 12.3718 18.848C11.1304 18.7481 10.1503 19.5398 9.19747 20.3094Z" fill="white"/></svg>