<svg width="24" height="24" viewBox="0 0 24 24" fill="none" xmlns="http://www.w3.org/2000/svg"><path d="M3.01858 4.51345C2.86171 3.01492 3.72037 1.07999 5.46246 1.1294C10.9695 0.857679 16.493 1.11293 22 1.02236C22 8.34213 22 15.6536 22 22.9734C16.493 22.8911 10.9777 23.1381 5.48724 22.8747C3.73689 22.9405 2.86171 20.9974 3.01858 19.507C2.99381 14.5092 2.99381 9.51134 3.01858 4.51345ZM16.6664 2.82554C18.0122 3.87122 19.2506 5.04864 20.3157 6.37428C20.2744 5.22155 20.2497 4.0606 20.2249 2.90788C19.036 2.89965 17.8553 2.86671 16.6664 2.82554ZM8.93842 9.43718C10.4988 10.0382 11.6383 11.191 12.3482 12.6978C12.9262 11.084 14.1647 9.94767 15.783 9.42077C14.0657 8.95144 12.7529 7.71642 12.2988 5.97906C11.8033 7.64226 10.5979 8.86087 8.93842 9.43718ZM16.6499 16.4935C17.8387 16.4606 19.0277 16.4277 20.2249 16.4029C20.2497 15.242 20.2827 14.081 20.3322 12.9201C19.2506 14.254 18.0204 15.4643 16.6499 16.4935ZM6.01564 21.3844C10.4246 21.7549 14.8665 21.335 19.2836 21.5984C18.7965 20.5774 18.8048 19.5647 19.3084 18.5437C14.9904 18.7331 10.6557 18.3626 6.3459 18.7083C4.99186 18.8896 4.72764 20.808 6.01564 21.3844Z" fill="white"/></svg>