<svg width="24" height="24" viewBox="0 0 24 24" fill="none" xmlns="http://www.w3.org/2000/svg"><g clip-path="url(#clip0_4181_200)"><path fill-rule="evenodd" clip-rule="evenodd" d="M18.9581 23.9091C17.1376 24.1854 13.0762 23.992 11.3957 21.0083C11.9559 20.8702 13.0762 20.2624 13.0762 18.9364C13.0762 17.6103 11.9559 17.0025 11.3957 16.8643C13.0762 16.45 14.4419 13.1347 13.9167 11.0627C13.7767 10.5102 13.2445 9.73666 12.2362 9.40514C11.816 9.40514 10.4716 9.73663 10.1355 11.0627C9.43524 9.40511 6.77437 7.33311 4.25355 10.2339C1.8844 12.9601 2.61691 15.5248 2.90993 16.5508C2.94714 16.6811 2.97727 16.7865 2.99305 16.8644C0.0521817 14.378 -1.92671 7.18824 2.99308 3.22809C7.3032 -0.241302 10.6632 1.18593 12.4421 1.94151C12.917 2.14324 13.2792 2.29709 13.5167 2.2971C13.7846 2.29712 14.1653 2.18027 14.6343 2.03633C16.1378 1.57488 18.5485 0.835006 21.059 2.77472C19.7986 2.63657 17.6341 2.70348 17.214 3.94669C17.214 3.94669 22.3195 3.18913 24 6.50433C21.4792 6.64247 16.4373 7.2502 16.4373 10.2339C16.4373 12.3059 17.6979 12.7203 18.9581 12.7203C17.1376 14.516 13.9167 18.9364 18.9581 23.9091ZM11.4515 7.91018C12.6117 7.91018 13.5522 6.98251 13.5522 5.83818C13.5522 4.69384 12.6117 3.76617 11.4515 3.76617C10.2913 3.76617 9.35083 4.69384 9.35083 5.83818C9.35083 6.98251 10.2913 7.91018 11.4515 7.91018Z" fill="white"/></g><defs><clipPath id="clip0_4181_200"><rect width="24" height="24" fill="white"/></clipPath></defs></svg>