<svg width="24" height="24" viewBox="0 0 24 24" fill="none" xmlns="http://www.w3.org/2000/svg"><g clip-path="url(#clip0_4181_205)"><path d="M7.24896 0.517949C6.9919 0.71228 6.73477 0.906673 6.56418 1.03699C6.64747 1.22344 6.73213 1.40949 6.81681 1.59559C7.22387 2.49015 7.63157 3.3861 7.89079 4.33526C8.18932 5.71261 8.00645 7.12403 7.8264 8.51362C7.79803 8.73251 7.76974 8.95086 7.74341 9.16845C7.99678 9.42428 8.50811 9.94506 8.76147 10.2054C8.883 10.0428 9.01118 9.88373 9.13942 9.72458C9.51185 9.26243 9.88487 8.79954 10.0973 8.24568C10.7053 5.322 10.1388 2.15164 7.93229 0C7.76202 0.130073 7.50553 0.32398 7.24896 0.517949Z" fill="white"/><path fill-rule="evenodd" clip-rule="evenodd" d="M16.1699 4.67192C14.7252 3.1586 13.2185 1.58016 10.9816 1.45306C11.0484 1.90413 11.1297 2.36404 11.2118 2.82906C11.6337 5.21802 12.0794 7.74155 10.7144 9.89063C9.94979 11.4484 6.82203 11.4346 6.67466 9.46118C6.59386 8.62613 6.60156 7.78674 6.60927 6.94709C6.61518 6.30303 6.6211 5.65881 6.58707 5.01629C5.86741 5.6073 5.16615 6.21886 4.46539 6.82997C4.17492 7.08328 3.88454 7.33651 3.59297 7.58818C2.43217 7.22734 1.21609 7.03547 0 7.23647C0.125287 7.48976 0.260657 7.74164 0.396532 7.99447C0.910088 8.95006 1.43087 9.91909 1.4418 11.0281C1.49707 12.2021 1.68132 13.4447 2.60721 14.2761C3.75542 15.4371 4.91999 16.5819 6.08477 17.7269C7.54148 19.1588 8.9985 20.5911 10.4242 22.0558C11.5759 23.2801 13.2433 24.4221 15.0122 23.8465C16.4566 23.3115 17.5407 22.2236 18.6123 21.1484C18.9589 20.8005 19.3043 20.454 19.66 20.128C20.0183 19.7555 20.3956 19.394 20.7742 19.0313C21.9046 17.9484 23.0453 16.8555 23.7182 15.4319C24.4045 13.9929 23.7458 12.3484 22.7233 11.2565C21.6805 10.1045 20.562 9.02454 19.4433 7.94434C18.6101 7.1398 17.7768 6.33514 16.9745 5.50053C16.7056 5.2331 16.4388 4.95364 16.1699 4.67192ZM14.3991 12.617C14.582 12.6755 14.7647 12.734 14.9477 12.7914C15.11 12.6652 15.2722 12.5387 15.4343 12.4123C16.0173 11.9577 16.5999 11.5033 17.191 11.0601C17.2141 12.0423 17.2141 13.0244 17.2048 14.0066C18.1491 14.6644 19.0888 15.3313 20.0055 16.0303C18.969 16.3501 17.9281 16.6516 16.8824 16.9394C16.5876 17.917 16.2789 18.8946 15.9657 19.8722C15.307 19.1001 14.6713 18.3144 14.0448 17.5241C12.9808 17.5698 11.9121 17.6155 10.848 17.6429C11.4423 16.7475 12.0595 15.8659 12.6952 14.9933C12.6338 14.7101 12.5372 14.4242 12.44 14.1363C12.2015 13.4304 11.959 12.7124 12.2207 11.992C12.959 12.1559 13.6797 12.3866 14.3991 12.617Z" fill="white"/></g><defs><clipPath id="clip0_4181_205"><rect width="24" height="24" fill="white"/></clipPath></defs></svg>