<svg width="24" height="24" viewBox="0 0 24 24" fill="none" xmlns="http://www.w3.org/2000/svg"><path d="M11.7374 2.00269C12.0431 1.75313 12.6454 1.25402 12.9466 1C14.9464 3.08022 13.8783 6.28615 13.0748 8.69766L13.0634 8.7318C14.5209 8.54032 15.4058 7.52714 16.294 6.51027C16.9972 5.70506 17.7025 4.89753 18.6958 4.49381C20.6062 4.43142 22.4447 5.17118 24 6.2318C23.7977 6.56158 23.3932 7.22561 23.1909 7.5598C22.7114 7.57226 22.1933 7.50825 21.6675 7.44329C20.3104 7.27563 18.9019 7.10162 17.9721 8.21936C18.6983 9.27386 19.6839 10.0831 20.6713 10.8938C21.499 11.5734 22.3281 12.2541 23.0066 13.0812C22.4582 13.4779 21.9053 13.8701 21.3524 14.2578C19.9319 13.3309 18.552 12.3459 17.1944 11.3254C16.719 11.485 16.2439 11.6735 15.7662 11.8629C14.2568 12.4616 12.7225 13.0701 11.0766 12.8094C9.522 12.5414 8.00729 12.1068 6.49229 11.6722C5.79073 11.4709 5.08911 11.2696 4.38343 11.0848C4.12401 11.0053 3.86167 10.9293 3.59856 10.8532C2.4028 10.507 1.1913 10.1563 0.167042 9.44043C-0.138628 7.2612 0.000722438 5.0375 0.378313 2.87614C0.604318 2.93251 0.855944 2.94833 1.11031 2.96431C1.66034 2.99889 2.22317 3.03427 2.56742 3.48221C2.69535 4.38853 2.7174 5.30424 2.73945 6.22006C2.75459 6.84881 2.76974 7.47763 2.81914 8.10347C2.91534 8.06679 3.04961 8.01653 3.1903 7.96386C3.39138 7.88859 3.6058 7.80832 3.74064 7.7559C3.80246 7.48239 3.8497 7.20107 3.89713 6.91858C4.03597 6.09181 4.1765 5.25494 4.6891 4.57403C5.80388 3.45993 7.8042 3.20146 9.0853 4.18186C9.649 4.74069 10.0821 5.40494 10.5141 6.06745C10.6712 6.30839 10.8282 6.54909 10.9912 6.7844C11.5846 5.26031 11.7464 3.62927 11.7374 2.00269Z" fill="white"/><path d="M0.0996094 12.6983C0.241204 12.5735 0.452475 12.3841 0.663744 12.1947C0.875014 12.0053 1.08628 11.8159 1.22788 11.6911C2.31148 12.8596 2.97701 14.2959 3.63793 15.7223C3.75839 15.9823 3.87869 16.2419 4.00135 16.4996C4.23257 16.3777 4.46739 16.2426 4.70596 16.1053C5.85412 15.4447 7.08919 14.7342 8.429 15.2028C9.25983 15.6163 9.74657 16.411 10.2218 17.187C10.3611 17.4144 10.4994 17.6402 10.6451 17.8543C11.2474 16.7669 11.8902 15.7063 12.5375 14.6457C13.1219 14.6279 13.7062 14.61 14.2906 14.5877C14.5996 15.9847 13.8108 17.0995 13.0383 18.1913C12.7881 18.5448 12.5396 18.8961 12.3307 19.2536C11.3643 20.5994 11.0317 22.2394 10.7665 23.8348C8.2897 24.0219 5.79938 24.0041 3.31809 23.8704C3.22975 21.44 2.3767 19.2062 1.52228 16.9688C0.985516 15.5633 0.448211 14.1563 0.0996094 12.6983Z" fill="white"/><path d="M19.806 15.8258C18.5833 15.0326 16.5201 15.2866 15.8548 16.7305C15.7556 17.1941 15.7551 17.6856 15.7547 18.1767C15.7538 19.0875 15.7529 19.9967 15.1221 20.7233C15.0079 20.9509 14.8437 21.1934 14.6737 21.4446C14.1808 22.1725 13.6385 22.9736 14.1197 23.6958C16.2572 24.1052 18.4448 24.0131 20.6199 23.9214C21.2854 23.8934 21.9496 23.8654 22.6109 23.8518C22.5255 22.6797 22.0445 21.6102 21.3163 20.6967C20.7241 20.0533 20.7137 19.2018 20.7034 18.3584C20.6917 17.3966 20.6802 16.4455 19.806 15.8258Z" fill="white"/></svg>