<svg width="24" height="24" viewBox="0 0 24 24" fill="none" xmlns="http://www.w3.org/2000/svg"><path fill-rule="evenodd" clip-rule="evenodd" d="M7.28331 5.5071C8.07075 3.39703 9.6332 1.28275 12.0166 1C14.3874 1.15192 15.7823 3.3886 16.6284 5.37206C15.9624 5.5915 15.2964 5.80671 14.6303 6.01772C14.6347 6.11912 14.6433 6.27233 14.6519 6.42382C14.6601 6.56867 14.6682 6.71204 14.6723 6.80695C15.2758 6.97645 15.8814 7.14196 16.4876 7.30764L16.4892 7.30808C16.7573 7.38134 17.0262 7.45486 17.2944 7.52855C17.4404 8.14177 17.5822 8.75508 17.7239 9.3683L17.7259 9.37693C17.8665 9.39466 18.0072 9.41187 18.148 9.4291C18.4097 9.46111 18.6724 9.49323 18.9364 9.52892C18.9378 9.27466 18.9387 9.02085 18.9396 8.76736L18.9396 8.76548C18.9415 8.24963 18.9434 7.73504 18.949 7.22045C19.8831 7.19941 20.8214 7.18248 21.7597 7.16564L21.8034 7.27772C22.4015 8.81223 23.0159 10.3885 22.9995 12.0652C23.0194 13.6854 22.4257 15.2107 21.8465 16.6988L21.7513 16.9437C20.8172 16.931 19.8789 16.9141 18.9448 16.893C18.9427 16.5153 18.9416 16.1376 18.9406 15.7599C18.9395 15.3822 18.9385 15.0045 18.9364 14.6268C18.5589 14.6621 18.1777 14.6937 17.7996 14.7251L17.7133 14.7323C17.5877 15.4075 17.4578 16.0785 17.3237 16.7537C16.523 16.8541 15.7146 16.9468 14.9095 17.0391L14.7854 17.0534C14.7199 17.4119 14.6545 17.7744 14.589 18.137L14.5843 18.1632C14.9111 18.2334 15.2371 18.3036 15.563 18.3737L15.5733 18.3759C15.9498 18.457 16.3262 18.538 16.7039 18.619C16.1048 19.9906 15.4137 21.4213 14.1277 22.2695C12.8124 23.2992 10.7977 23.2317 9.54937 22.1217C8.48002 21.2072 7.89468 19.8878 7.33467 18.6255L7.31683 18.5853C7.5441 18.5406 7.77092 18.4954 7.99775 18.4503C8.45647 18.359 8.9152 18.2677 9.37762 18.1802C9.35673 17.9564 9.32322 17.5134 9.30642 17.2897C8.97962 17.2032 8.65216 17.1181 8.32481 17.0329C7.82144 16.902 7.31833 16.7711 6.81829 16.6356C6.5293 15.6945 6.10204 14.7787 5.13863 14.3947C5.09673 15.1053 5.06938 15.8159 5.04203 16.5264L5.02553 16.9521C4.84652 16.9496 4.66734 16.9484 4.48813 16.9472C3.76994 16.9425 3.05121 16.9378 2.34053 16.8466C0.37599 13.9727 0.773927 10.1704 2.22743 7.16143C2.69029 7.17195 3.1542 7.1804 3.6181 7.18884C4.08201 7.19728 4.54592 7.20572 5.00877 7.21624C5.05485 8.06869 5.10931 8.92545 5.18051 9.7779C5.88004 9.12374 6.43715 8.33881 6.83092 7.46522C7.39222 7.31596 7.95549 7.17448 8.5194 7.03285C8.78436 6.9663 9.04978 6.89964 9.31487 6.8322C9.32342 6.72195 9.3342 6.55414 9.34492 6.38717C9.35513 6.22818 9.36529 6.06993 9.37344 5.96291C8.88982 5.86013 8.40418 5.75332 7.91936 5.64669C7.70711 5.60001 7.49501 5.55336 7.28331 5.5071ZM9.90967 9.08997C8.51788 10.9194 6.07379 11.2645 3.94998 11.5644L3.8401 11.5799L3.84013 11.582C3.84432 11.8978 3.84851 12.2136 3.85686 12.5294C5.92193 12.7995 8.23415 13.1413 9.71276 14.7745C10.5497 15.8435 10.9236 17.1449 11.2963 18.4425C11.4739 19.0608 11.6513 19.6781 11.8784 20.2691C12.473 19.4973 12.7294 18.5577 12.985 17.6213C13.2911 16.4995 13.5961 15.3823 14.4796 14.5635C15.4949 13.5462 16.8407 13.2138 18.1833 12.8822C18.8569 12.7158 19.5297 12.5497 20.1595 12.2973C20.1801 12.2305 20.2094 12.1247 20.2379 12.0218C20.2617 11.9362 20.2848 11.8526 20.3019 11.7951C19.6872 11.5776 19.036 11.4289 18.3832 11.2797C16.9586 10.9543 15.5261 10.6271 14.4461 9.57952C13.3404 8.41478 12.992 6.86333 12.6468 5.32595C12.5041 4.69085 12.3621 4.05816 12.1674 3.45612C11.5463 4.27587 11.3038 5.2585 11.0611 6.24198C10.8128 7.24828 10.5643 8.25546 9.90967 9.08997Z" fill="white"/><path d="M3.11555 5.58746C4.09991 4.21593 5.38167 3.07227 6.97761 2.48989C6.68438 3.55336 6.33672 4.59996 5.97648 5.63811C5.02144 5.64655 4.07059 5.62967 3.11555 5.58746Z" fill="white"/><path d="M20.8591 5.59127C19.8622 4.24927 18.6056 3.0803 17.0223 2.47682C17.3029 3.54029 17.638 4.58266 17.9856 5.62503C18.9449 5.62925 19.9041 5.62081 20.8591 5.59127Z" fill="white"/><path d="M3.12389 18.5435C4.05799 18.5141 4.99209 18.5056 5.92618 18.5099C6.07827 18.8796 6.23176 19.2484 6.38524 19.6171C6.69251 20.3554 6.99979 21.0937 7.29591 21.8395C5.5492 21.274 4.20041 19.9953 3.12389 18.5435Z" fill="white"/><path d="M20.8715 18.5481C19.9082 18.5143 18.9447 18.5017 17.9772 18.5059C17.6337 19.5356 17.2985 20.5695 17.0137 21.6203C18.6264 21.0759 19.8705 19.8901 20.8715 18.5481Z" fill="white"/></svg>