<svg width="24" height="24" viewBox="0 0 24 24" fill="none" xmlns="http://www.w3.org/2000/svg"><path d="M15.9067 7.90355C15.298 7.90355 14.7225 8.03449 14.2007 8.26373L12.6686 17.1844L10.9996 19.6674L9.99863 8.3637C9.42311 8.07092 8.77183 7.90531 8.0798 7.90531C5.77244 7.90355 3.8999 9.74441 3.8999 12.0146C3.8999 12.9442 4.21261 13.7991 4.7418 14.4886L4.7492 14.4976C4.82876 14.5995 4.91204 14.6977 4.999 14.7923L11.9618 23L19.0079 14.7705C19.6777 14.0411 20.0866 13.0751 20.0866 12.0146C20.0885 9.74441 18.216 7.90355 15.9067 7.90355Z" fill="white"/><path d="M11.9932 10.5612C12.3874 9.53693 13.1885 8.7093 14.1989 8.26367L14.3858 6.6465L15.4646 6.65926C15.829 6.66287 16.1269 6.36094 16.1306 5.98615L16.1325 5.70601C16.1343 5.33131 15.8383 5.02024 15.4756 5.01659L13.5383 4.99295L13.555 2.57723C13.5605 1.72044 12.8833 1.00919 12.0506 1.00009C11.218 0.990989 10.5333 1.68406 10.5296 2.54084L10.513 4.95657L8.52201 4.93292C8.15752 4.92928 7.85964 5.23123 7.85594 5.60597L7.85409 5.88612C7.85225 6.26086 8.14828 6.57187 8.51092 6.57557L9.88944 6.59194L10.0005 8.36188C10.9109 8.82572 11.6269 9.60795 11.9932 10.5612Z" fill="white"/></svg>