<svg width="24" height="24" viewBox="0 0 24 24" fill="none" xmlns="http://www.w3.org/2000/svg"><path d="M4.55189 1.11045C5.95827 0.941926 7.38731 1.0057 8.80279 1.04669C10.3044 1.08768 10.8397 3.32847 12.4548 2.97323C13.5028 2.32648 14.1787 0.837175 15.5942 1.02847C16.8735 1.02391 18.1665 0.951036 19.4368 1.115C20.952 2.49501 22.4355 3.94333 23.7693 5.49641C24.232 8.14706 23.8328 10.9163 23.9644 13.6125C19.9903 16.7779 15.9707 19.9113 11.9421 22.9993C10.1593 23.0448 9.22926 20.9498 7.75029 20.1572C7.57329 18.882 8.154 17.2196 6.91551 16.3634C4.67439 14.4778 2.24272 12.8154 0.0877954 10.8297C0.0378907 9.06258 -0.139047 7.21802 0.21935 5.49185C1.53953 3.92511 3.05933 2.51778 4.55189 1.11045ZM4.10729 5.68769C4.07101 6.73064 3.98935 7.77815 4.12091 8.81664C6.36206 11.2487 9.35175 12.8473 11.6926 15.1884C11.8105 16.0082 11.7743 16.837 11.8151 17.6614C13.099 17.1787 14.1469 16.2769 15.195 15.4206C16.7283 14.159 18.3933 13.0659 19.8314 11.6996C20.0174 10.2285 20.0311 8.71642 19.8451 7.24989C19.2916 6.48019 18.6474 5.76967 17.8988 5.18214C16.996 5.07283 16.0706 5.06828 15.1677 5.20947C13.3667 6.74438 12.2325 9.24017 9.90061 10.0099C9.87795 8.5707 9.90969 7.13143 9.89153 5.68769C7.96352 5.6376 6.03539 5.63304 4.10729 5.68769Z" fill="white"/></svg>