<svg width="24" height="24" viewBox="0 0 24 24" fill="none" xmlns="http://www.w3.org/2000/svg"><path d="M13.5954 1C11.46 1.15691 9.69432 2.37186 8.41402 3.97237C9.19056 4.81073 10.0594 5.57287 10.9931 6.24535C12.5092 4.88694 13.8219 3.12056 13.5954 1Z" fill="white"/><path d="M8.05794 5.57322C5.60822 7.67136 3.38034 10.1551 2.10463 13.0916C5.20147 11.8139 7.68352 9.35254 9.54625 6.68056C9.04708 6.31294 8.55251 5.94531 8.05794 5.57322Z" fill="white"/><path fill-rule="evenodd" clip-rule="evenodd" d="M11.4599 8.82774C14.7417 6.34854 19.2113 4.52836 23.3295 6.08403C23.7871 9.67508 21.0416 12.6519 18.2591 14.6245C18.1355 14.6946 18.0066 14.7738 17.8734 14.8556C17.1302 15.3119 16.2556 15.8489 15.4442 15.3508C13.2672 13.813 12.033 11.3248 11.4599 8.82774ZM13.5583 9.77367C13.7698 10.318 14.0931 10.8096 14.4139 11.2975C14.4789 11.3963 14.5438 11.495 14.6076 11.5939C14.852 11.4608 15.0986 11.3288 15.3461 11.1963C17.2662 10.1686 19.2347 9.11504 20.5286 7.34385C18.0649 7.4918 15.3009 7.89976 13.5583 9.77367Z" fill="white"/><path d="M9.65268 9.89433C8.04883 10.8134 6.64828 12.0417 5.68223 13.5975C6.33156 13.6276 6.98084 13.6502 7.63014 13.6728C7.84964 13.6805 8.06961 13.6881 8.28911 13.6961C7.42893 14.4606 6.47179 15.127 5.51533 15.7929C3.83012 16.9661 2.14701 18.138 1 19.8425C3.37981 19.4412 5.57473 18.4882 7.76639 17.5366C8.6353 17.1593 9.50373 16.7822 10.3829 16.4398C9.88377 17.1571 9.3892 17.8789 8.90853 18.6096C10.6327 19.1607 12.2067 18.2279 13.6568 17.3685C13.8938 17.2281 14.1275 17.0895 14.358 16.9598C12.3751 14.8841 10.7666 12.5125 9.65268 9.89433Z" fill="white"/><path d="M15.939 18.3139C18.2778 16.6461 21.846 16.664 24 18.6545C22.5856 20.9141 19.9001 22.6939 17.1083 22.3756C15.8511 21.5597 15.8511 19.6677 15.939 18.3139Z" fill="white"/><path d="M14.5338 19.6766C10.9008 20.2415 7.26772 21.1785 3.98142 22.8238C6.81943 23.2808 9.64574 22.7626 12.4439 22.2495C13.1594 22.1183 13.8731 21.9875 14.5846 21.8733C14.5755 21.5095 14.5675 21.1468 14.5595 20.7846C14.5513 20.4149 14.5432 20.0457 14.5338 19.6766Z" fill="white"/></svg>