<svg width="24" height="24" viewBox="0 0 24 24" fill="none" xmlns="http://www.w3.org/2000/svg"><path d="M9.14547 1.89226C10.5961 0.465422 12.8531 -0.815315 14.7237 0.645599C16.7278 1.48806 16.5799 3.97163 16.1648 5.7637C15.7474 6.29597 15.2426 6.74211 14.7388 7.18729C14.6203 7.29193 14.502 7.39652 14.3848 7.50216C14.3801 7.92341 14.3763 8.34466 14.3724 8.76598L14.3724 8.76766C14.3608 10.0408 14.3491 11.3145 14.3133 12.5911C13.2492 12.7274 12.1803 12.7275 11.1162 12.5716C11.0859 11.7819 11.0794 10.9907 11.073 10.1987C11.0682 9.6183 11.0635 9.03741 11.0494 8.45665C11.1491 7.64269 10.6134 7.15025 10.0742 6.65454C9.5811 6.20124 9.08505 5.74521 9.06914 5.03811C8.97945 4.10132 9.05026 3.16063 9.12083 2.22302C9.12914 2.11272 9.13743 2.00246 9.14547 1.89226Z" fill="white"/><path d="M5.72311 10.9297C6.81941 10.366 7.91502 9.80267 9.11209 9.48422C9.11519 9.57953 9.11794 9.67669 9.12073 9.77533C9.16524 11.3497 9.22029 13.2968 10.8681 13.9886C12.3569 14.3295 14.3563 14.6023 15.449 13.2339C16.2322 12.5354 16.2381 11.5096 16.2439 10.5105C16.246 10.1583 16.248 9.80935 16.2841 9.47932C17.7314 9.90331 19.0548 10.6224 20.3774 11.3411C20.908 11.6295 21.4385 11.9178 21.9768 12.1869L22.015 12.7129C19.2665 14.3928 16.3986 15.8635 13.5164 17.2855C12.6764 17.7892 11.8363 17.3336 11.0526 16.9087C10.8435 16.7954 10.6386 16.6842 10.4386 16.594C9.59432 16.1122 8.73 15.6643 7.86561 15.2163C6.12623 14.3149 4.38642 13.4132 2.80855 12.2356C3.82475 11.9057 4.77419 11.4175 5.72311 10.9297Z" fill="white"/><path d="M8.30423 17.4417C6.3295 16.3724 4.35531 15.3034 2.29793 14.4127C2.2087 14.6715 2.12418 14.9322 2.03969 15.193C1.75365 16.0756 1.46782 16.9575 1 17.7583C2.65643 19.3012 4.66122 20.3131 6.66507 21.3244C7.77266 21.8834 8.87996 22.4422 9.92799 23.0906C11.2498 24.0207 13.0249 24.2934 14.5137 23.6457C16.2598 22.6999 17.9902 21.7259 19.72 20.7522C20.6799 20.2119 21.6397 19.6716 22.6019 19.1363C22.7293 19.0383 22.8724 18.9479 23.0174 18.8563C23.4484 18.5841 23.8965 18.3012 24 17.7729C23.8616 16.609 23.5038 15.489 23.122 14.3884C21.0235 15.2331 19.05 16.3431 17.0761 17.4532C15.9889 18.0647 14.9016 18.6762 13.7932 19.2435C13.0249 19.6428 12.0897 19.4918 11.3643 19.0682C10.3365 18.5421 9.3203 17.9919 8.30423 17.4417Z" fill="white"/></svg>