<svg width="24" height="24" viewBox="0 0 24 24" fill="none" xmlns="http://www.w3.org/2000/svg"><path fill-rule="evenodd" clip-rule="evenodd" d="M22.931 2.00171C21.3409 1.99732 19.7508 1.99293 18.1608 2.10461C18.3653 3.90783 18.3516 6.66784 16.0162 6.8703C15.7693 6.54797 15.5903 6.17245 15.4121 5.79865C15.069 5.0788 14.7289 4.36533 13.9125 4.05044C13.2991 5.37984 12.5903 6.66321 11.7497 7.85925C12.8299 9.35162 14.0497 10.7279 15.268 12.1025C15.8484 12.7574 16.4286 13.4121 16.9931 14.0785C17.9567 14.0986 18.7631 13.5867 19.5789 13.0689C20.2633 12.6345 20.9543 12.1959 21.7503 12.0637C21.7639 11.6773 21.7775 11.2909 21.7957 10.9045L21.6718 10.8835C20.5437 10.6927 19.3405 10.4892 18.5515 9.57512C19.0559 8.83904 19.7557 8.25491 20.469 7.73045C20.9801 7.55651 21.5204 7.57123 22.0594 7.58591C22.6464 7.60191 23.2319 7.61786 23.7768 7.39003C24.0901 6.06189 24.0068 4.67826 23.9244 3.30921C23.898 2.87172 23.8718 2.43564 23.8586 2.00341C23.5494 2.00341 23.2402 2.00256 22.931 2.00171ZM20.3508 5.35224C20.3554 4.86924 20.36 4.38164 20.36 3.89863C20.9143 3.88484 21.4686 3.87103 22.0229 3.84803C22.0501 4.37244 22.0683 4.89684 22.0819 5.41664C21.505 5.39364 20.9279 5.37065 20.3508 5.35224Z" fill="white"/><path d="M6.4401 2.09143C4.59703 1.95145 2.51858 1.79359 1.30381 3.49379C-0.554538 5.26481 -0.359163 8.31468 1.46284 10.0396C3.59836 8.07086 5.70662 6.06066 7.68313 3.9308C7.98116 3.33773 7.55859 2.91201 7.15927 2.50973C7.02896 2.37845 6.90113 2.24967 6.80162 2.11838C6.68239 2.10984 6.56169 2.10067 6.4401 2.09143Z" fill="white"/><path fill-rule="evenodd" clip-rule="evenodd" d="M7.43315 5.95969C7.84048 5.46875 8.4433 5.30308 9.02936 5.14202C9.12969 5.11445 9.22958 5.087 9.32786 5.05808C9.35967 6.29552 9.51423 7.58353 10.4684 8.46673C11.6473 9.75013 12.759 11.0941 13.8707 12.438C15.3769 14.2588 16.883 16.0796 18.5561 17.7496C18.6724 17.8803 18.8024 18.012 18.9353 18.1465C19.5599 18.7791 20.2468 19.4747 19.8647 20.4268C19.5295 20.8484 19.1465 21.229 18.7644 21.6088C18.6336 21.7387 18.5029 21.8686 18.3743 22C18.0646 21.7492 17.7501 21.5046 17.4358 21.2601C16.7357 20.7155 16.0365 20.1716 15.3937 19.562C13.9281 18.1667 12.3459 16.9117 10.764 15.6571C9.38377 14.5623 8.00374 13.4677 6.70162 12.2801C6.03584 11.6838 5.19187 11.4375 4.34713 11.191C3.84291 11.0438 3.33841 10.8966 2.87136 10.6748C3.82789 9.61012 4.8349 8.59464 5.84162 7.57946C6.37468 7.04192 6.9078 6.50432 7.43315 5.95969ZM9.37786 11.9259C10.064 12.9886 10.9818 14.1524 12.3494 14.1846C12.3494 12.7816 10.7955 10.8633 9.37786 11.9259Z" fill="white"/><path d="M10.9138 17.5558C9.94589 16.6726 8.9463 15.817 7.90129 15.0165C6.48144 16.9958 5.27475 19.1286 4.07486 21.2493C4.01147 21.3614 3.94809 21.4734 3.8847 21.5854C4.96815 21.2742 5.93744 20.7133 6.90593 20.1529C7.38333 19.8766 7.86055 19.6005 8.35114 19.3544C9.28712 18.8852 10.1822 18.3148 10.9138 17.5558Z" fill="white"/></svg>