<svg width="24" height="24" viewBox="0 0 24 24" fill="none" xmlns="http://www.w3.org/2000/svg"><path fill-rule="evenodd" clip-rule="evenodd" d="M11.5026 0.789945C9.77119 -0.720471 7.10591 0.0984668 5.8948 1.86878C4.56774 3.71123 3.9156 5.89145 3.26667 8.06095C3.00708 8.92881 2.748 9.79496 2.44644 10.6371C1.64959 10.6611 0.84806 10.6804 0.0464356 10.6997L0 10.7008C0.0291828 11.1716 0.0778172 12.1082 0.102134 12.579C0.193337 12.6108 0.284824 12.6433 0.376608 12.6759C1.28823 12.9999 2.22906 13.3341 3.21005 13.1381C4.62268 12.9444 5.17594 11.6053 5.67986 10.3857C5.78839 10.123 5.89463 9.86585 6.00668 9.62688C6.29861 9.03993 6.48317 8.38555 6.66779 7.73098C7.00299 6.54251 7.33837 5.35338 8.31692 4.56596C8.71916 7.23008 8.21418 9.84905 7.7113 12.4571C7.55141 13.2864 7.39173 14.1145 7.26149 14.9427C6.72163 17.277 6.78971 19.8908 8.04451 21.9897C9.0173 23.1421 10.4959 24.0738 12.0425 23.9954C14.5522 23.6227 16.9743 22.0534 17.8692 19.5671C18.842 19.9104 19.8488 20.1556 20.8798 20.2537C22.1882 18.753 22.6454 16.7768 22.9129 14.8545C23.1561 11.7208 23.0101 8.25369 20.8847 5.74783C20.7296 5.75536 20.5693 5.75689 20.4072 5.75845C19.6188 5.766 18.7852 5.77399 18.2729 6.47357C16.4875 8.24099 15.9276 10.5973 15.3648 12.9652C14.9173 14.8482 14.4681 16.7386 13.3995 18.3461C12.7429 18.2675 12.0863 18.1842 11.4297 18.1009C11.3373 17.0269 11.2837 15.9529 11.24 14.874C10.9412 14.7963 10.6412 14.7186 10.3413 14.6408C10.0357 14.5616 9.73017 14.4825 9.42586 14.4033C9.41129 13.751 9.40148 13.0939 9.41129 12.4417C10.2624 12.2847 11.1086 12.0984 11.9453 11.8876C12.0328 11.3971 12.1057 10.9116 12.1689 10.4213C13.0104 10.1614 13.8518 9.90633 14.7029 9.66605C14.7564 9.07267 14.8051 8.47929 14.8489 7.88592C14.1679 7.62605 13.4871 7.37597 12.7964 7.15037C13.2585 5.01713 13.5259 2.21699 11.5026 0.789945ZM12.1689 10.4213C12.0121 10.3287 11.8358 10.2401 11.6548 10.1491C10.8482 9.74368 9.94862 9.29151 10.2624 8.23411C10.6631 7.75665 11.2574 7.5735 11.8391 7.39425C12.0342 7.33415 12.2278 7.27449 12.4122 7.20432C12.3538 8.27827 12.2662 9.34733 12.1689 10.4213ZM19.557 17.2329C18.0686 14.6142 18.2729 11.3579 19.5715 8.70979C19.6896 8.72682 19.8687 8.75468 20.0483 8.78263C20.231 8.81106 20.4143 8.83958 20.5345 8.85686C21.4003 11.4903 21.3419 14.5014 20.6318 17.1691C20.4979 17.1765 20.2958 17.1887 20.0938 17.201C19.8921 17.2133 19.6906 17.2255 19.557 17.2329Z" fill="white"/><path d="M11.7087 12.1246C11.5911 12.113 11.4737 12.1015 11.3567 12.0891C11.3229 12.997 11.2988 13.9099 11.2747 14.8227L11.274 14.8499C11.3847 14.8392 11.4959 14.8292 11.6071 14.8192C12.3603 14.7515 13.1197 14.6832 13.8275 14.384V12.5402C13.1504 12.2663 12.4266 12.1951 11.7087 12.1246Z" fill="white"/></svg>