<svg width="24" height="24" viewBox="0 0 24 24" fill="none" xmlns="http://www.w3.org/2000/svg"><path fill-rule="evenodd" clip-rule="evenodd" d="M14.898 8.08992C15.7063 5.84048 17.0239 3.84573 18.4911 2C18.5829 2.15584 18.6819 2.31069 18.7814 2.46643C19.1729 3.07928 19.5733 3.70595 19.5844 4.46098C19.6439 5.12186 19.7223 5.7808 19.8007 6.43933C19.9685 7.84988 20.1362 9.25862 20.1171 10.6808C20.1152 11.202 20.12 11.7289 20.1248 12.259C20.1557 15.6779 20.1878 19.227 18.4443 22.2357C18.0612 22.8126 17.1548 23.3221 16.6081 22.6732C15.3511 21.361 13.842 19.8853 11.9076 20.0247C9.84234 19.895 8.22097 21.5244 6.95475 23C6.34733 22.9615 5.72125 22.803 5.38951 22.2213C4.12795 20.241 3.78686 17.8041 3.7121 15.4825C3.61865 11.6901 3.64669 7.87362 4.34288 4.13413C4.50641 3.46121 4.81947 2.86999 5.27737 2.3605C7.06689 3.81209 8.04345 5.98467 8.9499 8.07074C10.931 8.05634 12.9168 8.0467 14.898 8.08992ZM10.7878 15.8109C10.9371 16.4683 11.0863 17.1257 11.2254 17.7848C11.6926 17.8089 12.1645 17.8137 12.6318 17.8041C12.7773 17.0687 12.9378 16.3364 13.0982 15.6042C13.4684 13.9149 13.8384 12.2264 14.0242 10.5029C12.6132 10.4355 11.1973 10.4404 9.78632 10.5269C9.99348 12.3121 10.3907 14.0618 10.7878 15.8109ZM6.4502 14.9153C6.41541 15.9849 6.8853 16.916 7.35134 17.8396C7.5115 18.1569 7.67121 18.4734 7.80981 18.7943C8.34721 18.7174 8.88451 18.6405 9.42181 18.5587C9.21628 17.011 8.87988 15.4777 8.3051 14.0261C8.1025 14.1362 7.83693 14.1757 7.56963 14.2154C7.06637 14.2902 6.55699 14.366 6.4502 14.9153ZM15.5147 14.1078C14.9213 15.521 14.5662 17.0254 14.4027 18.554L14.4217 18.5572C14.9293 18.6426 15.437 18.7281 15.9445 18.8231C16.0547 18.5979 16.1711 18.3731 16.2878 18.1475C16.8935 16.9767 17.5101 15.7848 17.3416 14.4106C16.7342 14.3001 16.1222 14.1991 15.5147 14.1078Z" fill="white"/><path d="M0.0115154 16.9C-0.10887 15.6315 0.736327 14.6179 1.53301 13.6626C1.7567 13.3944 1.9766 13.1307 2.17019 12.8673C2.19663 14.0641 2.3592 15.247 2.52167 16.4292C2.7037 17.7538 2.8856 19.0774 2.87573 20.4183C2.78466 20.3221 2.69324 20.226 2.60171 20.1298C1.65073 19.1298 0.689211 18.1188 0.0115154 16.9Z" fill="white"/><path d="M24 16.4675C23.3318 15.1937 22.5703 13.9728 21.7058 12.8288C21.6266 13.9449 21.4804 15.0532 21.3341 16.161C21.1352 17.6678 20.9365 19.1737 20.9068 20.6972C21.0987 20.4555 21.2929 20.215 21.4872 19.9743C22.3902 18.8557 23.2963 17.7332 24 16.4675Z" fill="white"/></svg>