<svg width="24" height="24" viewBox="0 0 24 24" fill="none" xmlns="http://www.w3.org/2000/svg"><g clip-path="url(#clip0_4179_31)"><path d="M4.48616 1.40291C4.49551 0.21511 5.9311 0.06547 6.8336 0C7.94804 1.41409 7.86223 3.14908 7.77656 4.88089C7.7339 5.74343 7.69128 6.60517 7.797 7.42609C6.7074 8.09479 5.6038 8.73549 4.47681 9.34339C4.40666 6.70119 4.35522 4.04973 4.48616 1.40291Z" fill="white"/><path d="M16.6914 1.01459C17.4864 0.0325506 18.6882 -0.0142092 19.8386 0.219611C20.1072 2.38093 20.0828 4.55536 20.0585 6.72946C20.0472 7.73509 20.036 8.74123 20.0537 9.74539C20.3389 12.0602 18.5152 14.0336 16.5792 14.9969C15.5731 15.1943 14.5445 15.1482 13.5252 15.1026C13.3129 15.0931 13.1009 15.0837 12.8896 15.0764C12.8756 14.6275 12.8475 13.725 12.8335 13.2713C12.9074 13.2618 12.9829 13.2523 13.0596 13.2427C14.4936 13.0634 16.3725 12.8284 16.6166 11.1062C16.7365 8.77843 16.7194 6.4439 16.7023 4.11041V4.10939C16.6947 3.07735 16.6871 2.04553 16.6914 1.01459Z" fill="white"/><path d="M11.5942 4.38619C10.6683 3.82035 9.59737 3.82035 8.69487 4.41893C8.69957 5.50852 8.68087 6.59344 8.65747 7.68299C9.64887 7.69239 10.6356 7.68299 11.6269 7.66899C11.6082 6.57473 11.5895 5.48046 11.5942 4.38619Z" fill="white"/><path d="M12.9316 4.26088C13.8762 4.22814 14.8161 4.22814 15.7608 4.26088C15.7982 5.43464 15.8075 6.61309 15.7935 7.78689C14.8115 7.73069 13.8295 7.68399 12.8474 7.64189C12.8661 6.51488 12.8942 5.38788 12.9316 4.26088Z" fill="white"/><path d="M7.53986 8.96607C6.47366 8.98007 5.39346 9.71897 4.96321 10.6777C4.46551 12.465 6.07049 13.6916 7.35413 14.6726C7.45751 14.7517 7.55881 14.8291 7.65676 14.9051C8.48082 15.1473 9.34292 15.1462 10.2033 15.1451C10.6221 15.1446 11.0405 15.144 11.4539 15.1716C11.9169 14.2551 12.0104 13.245 11.9683 12.2396L11.984 12.2382C13.0685 12.1451 14.1619 12.0511 15.223 11.7766C16.2892 11.1359 16.0273 8.88657 14.5964 8.96137C12.2489 8.85857 9.89196 8.87727 7.53986 8.96607Z" fill="white"/><path d="M4.06079 17.864C5.38417 16.7931 6.95077 16.1057 8.67157 16.5406C8.79317 17.6115 8.83057 18.6917 8.77917 19.7719C7.24701 20.6222 5.72286 19.8034 4.34267 19.0619C4.22758 19 4.11301 18.9385 4 18.8788C4.01871 18.6262 4.04677 18.1212 4.06079 17.864Z" fill="white"/><path d="M13.792 16.5586C12.7539 16.4698 11.7111 16.4745 10.673 16.554C10.5514 17.6061 10.5046 18.6677 10.5607 19.7245C11.655 20.2623 12.8334 20.2249 13.9277 19.7339C13.9697 18.6724 13.9183 17.6155 13.792 16.5586Z" fill="white"/><path d="M16.4576 16.5085C17.7676 16.1192 18.853 16.8833 19.8839 17.6091C20.141 17.7901 20.3947 17.9687 20.6476 18.1265C19.558 19.6884 17.4256 20.8201 15.6393 19.6557C15.6733 19.366 15.6618 19.0488 15.6503 18.7279C15.6188 17.8574 15.5864 16.9595 16.4576 16.5085Z" fill="white"/><path d="M16.4996 21.6105C13.7126 21.5684 10.9255 21.5637 8.13843 21.6105C8.14781 22.1366 8.16128 22.6627 8.17477 23.1901C8.18155 23.4551 8.18834 23.7203 8.19463 23.9861C8.64443 23.9861 9.09424 23.986 9.54405 23.9858C11.7831 23.9852 14.0221 23.9845 16.2611 24.0001C16.4856 23.2238 16.6212 22.4195 16.4996 21.6105Z" fill="white"/></g><defs><clipPath id="clip0_4179_31"><rect width="24" height="24" fill="white"/></clipPath></defs></svg>